<svg id="Layer_1" data-name="Layer 1" xmlns="http://www.w3.org/2000/svg" viewBox="0 0 512 432.94"><path d="M216.24,404.2l15.42,14.74a2.31,2.31,0,0,1,.56,2.54c-3.67,8.68-10.6,10.88-13.34,11.42a2.28,2.28,0,0,1-2-.56l-16.58-15c-18.76-19.39-3.71-31.9-3.71-31.9A39.42,39.42,0,0,0,207,359c0-22.86-20.07-41.37-44.86-41.37S117.25,336.12,117.25,359s20.06,41.4,44.86,41.4c.67,0,13.81,15.48,17.38,20.55a.84.84,0,0,1-.51,1.3,75.71,75.71,0,0,1-16.87,1.95c-39,0-70.69-29.17-70.69-65.2s31.65-65.18,70.69-65.18S232.79,323,232.79,359a62.11,62.11,0,0,1-16.64,42A2.29,2.29,0,0,0,216.24,404.2Z" style="fill:#526cb2"/><path d="M31.69,323.06v27.43H76V374.4H31.69v29.1H81.55v25.39H0v-131H81.55v25.21Z" style="fill:#f59120"/><path d="M276.53,297.85v75.62q0,13,5.84,19.83t17,6.86q11.12,0,16.95-6.86t5.85-19.83V297.85h31.69v75.62q0,18.54-7.23,31.24a47,47,0,0,1-19.74,19.08,61.12,61.12,0,0,1-28.27,6.4q-15.75,0-27.8-6.3a44.71,44.71,0,0,1-18.9-19.09Q245,392,245,373.47V297.85Z" style="fill:#f59120"/><path d="M454.17,403.31H512v25.58H419V404.8l56.9-81.56H419.7V297.85h91.93v24.09Z" style="fill:#f59120"/><rect x="364.55" y="296.98" width="32.24" height="130.24" style="fill:#f59120"/><path d="M335.46,143.59C358.28,137.85,375,118.86,375,96.3c0-27.11-24.18-49.08-54-49.08s-54,22-54,49.08H249.86c0-27.11-24.18-49.08-54-49.08s-54,22-54,49.08c0,22.56,16.75,41.58,39.57,47.29-6.46-.25-19.24.18-28.52-7.42,0,0-6.43,52.64,44.9,83.32L192.12,205h2.65s31.19,33.35,63.66,30.28C290.91,238.35,322.1,205,322.1,205h2.66L319,219.49C370.36,188.81,363.93,134,363.93,134,354.65,141.59,341.92,143.34,335.46,143.59ZM151.71,96.3c0-22.16,19.77-40.14,44.17-40.14S240,74.14,240,96.3a37.13,37.13,0,0,1-6.18,20.47,41.25,41.25,0,0,1-11.33,11.52,46.63,46.63,0,0,1-26.65,8.16C171.48,136.45,151.71,118.47,151.71,96.3Zm155,102.14c-10.23,28.17-44.39,30.85-48.24,31.06h0c-3.24-.15-38-2.61-48.35-31.06,0,0-12.06-23.12,6.95-48.67,0,0,10.9-10.9,19.92-21.67a47.14,47.14,0,0,0,4.67-5.81,45.51,45.51,0,0,0,6-12.19A41.25,41.25,0,0,0,249,105H267.9a43.12,43.12,0,0,0,1.34,5.14,45.51,45.51,0,0,0,6.15,12.41c1.38,1.81,2.92,3.69,4.47,5.57,9,10.77,19.94,21.69,19.94,21.69C318.82,175.32,306.75,198.44,306.75,198.44Zm14.27-62a46.61,46.61,0,0,1-26.81-8.27.35.35,0,0,0-.1-.08,41.26,41.26,0,0,1-11-11.23,37.14,37.14,0,0,1-6.24-20.57c0-22.16,19.77-40.14,44.16-40.14s44.16,18,44.16,40.14S345.41,136.45,321,136.45Z" style="fill:#526cb2"/><polygon points="258.92 136.45 248.08 145.99 258.92 163.17 268.8 145.45 258.92 136.45" style="fill:#526cb2"/><path d="M337.11,90.24c0,8.11-7.21,14.72-16.1,14.72s-16.08-6.61-16.08-14.72a11,11,0,0,1,.24-2.38,9.16,9.16,0,0,0,9.13,6.72c5.18,0,9.37-3.85,9.37-8.57s-4.19-8.59-9.37-8.59a7.64,7.64,0,0,0-1.36.1,16.78,16.78,0,0,1,8.07-2C329.9,75.52,337.11,82.1,337.11,90.24Z" style="fill:#526cb2"/><path d="M185,96.3c0,8.12,7.21,14.72,16.1,14.72s16.08-6.6,16.08-14.72a11,11,0,0,0-.24-2.37,9.17,9.17,0,0,1-9.13,6.71c-5.18,0-9.37-3.84-9.37-8.57s4.19-8.59,9.37-8.59a6.81,6.81,0,0,1,1.36.11,16.67,16.67,0,0,0-8.07-2C192.18,81.58,185,88.17,185,96.3Z" style="fill:#526cb2"/><path d="M301.53,254.73V250.3a3,3,0,0,0-3-3H298a3,3,0,0,0-3,3v4.43h-3.28l-3.13,0V250.3a3,3,0,0,0-3-3H285a3,3,0,0,0-3,3v4.36l-9.13,0c.06-8.83,8.52-16,18.8-16s18.82,7.28,18.82,16.15Z" style="fill:#526cb2"/><path d="M235,254.73V250.3a3,3,0,0,0-3-3h-.54a3,3,0,0,0-3,3v4.43h-3.28l-3.13,0V250.3a3,3,0,0,0-3-3h-.54a3,3,0,0,0-3,3v4.36l-9.13,0c.06-8.83,8.52-16,18.8-16S244,245.86,244,254.73Z" style="fill:#526cb2"/><path d="M377.06,0V10.21H329.55V40.34c-50.72-9-72.87,35.18-72.87,35.18-26.53-45.26-73.82-34.36-73.82-34.36V9H144.07V33.3l4.77,4.9L142,52.8l-7-14.6,4.9-4.9V9H135.7V0Z" style="fill:#526cb2"/></svg>